<?xml version="1.0" encoding="UTF-8"?>
<svg version="1.1" xmlns="http://www.w3.org/2000/svg" width="24" height="24">
<path d="M0 0 C2.50963523 2.50963523 3 3.40643594 3 7 C4.65 7 6.3 7 8 7 C8 7.33 8 7.66 8 8 C6.35 8 4.7 8 3 8 C3.33 10.97 3.66 13.94 4 17 C4.66 17 5.32 17 6 17 C6 17.99 6 18.98 6 20 C-0.6 20 -7.2 20 -14 20 C-14 19.01 -14 18.02 -14 17 C-13.34 17 -12.68 17 -12 17 C-11.67 14.03 -11.34 11.06 -11 8 C-12.65 8 -14.3 8 -16 8 C-16 7.67 -16 7.34 -16 7 C-14.35 7 -12.7 7 -11 7 C-10.9175 6.236875 -10.835 5.47375 -10.75 4.6875 C-10 2 -10 2 -8.3125 0.125 C-5.10170492 -1.43700842 -3.36486763 -1.07389392 0 0 Z " fill="#DB4250" transform="translate(16,3)"/>
<path d="M0 0 C5.28 0 10.56 0 16 0 C16 0.66 16 1.32 16 2 C16.66 2 17.32 2 18 2 C18 2.99 18 3.98 18 5 C11.4 5 4.8 5 -2 5 C-2 4.01 -2 3.02 -2 2 C-1.34 2 -0.68 2 0 2 C0 1.34 0 0.68 0 0 Z " fill="#B1A1A2" transform="translate(4,18)"/>
<path d="M0 0 C6.6 0 13.2 0 20 0 C20 0.99 20 1.98 20 3 C13.4 3 6.8 3 0 3 C0 2.01 0 1.02 0 0 Z " fill="#565656" transform="translate(2,20)"/>
<path d="M0 0 C3.65316671 1.24976756 4.78065836 1.67098753 7 5 C7 5.99 7 6.98 7 8 C8.65 8 10.3 8 12 8 C12 8.33 12 8.66 12 9 C10.35 9 8.7 9 7 9 C7 11.31 7 13.62 7 16 C6.34 16 5.68 16 5 16 C4.96132813 14.89591797 4.96132813 14.89591797 4.921875 13.76953125 C4.50939957 6.08058844 4.50939957 6.08058844 0 0 Z " fill="#CA2734" transform="translate(12,2)"/>
<path d="M0 0 C0.66 0 1.32 0 2 0 C1.34 1.32 0.68 2.64 0 4 C-0.66 4 -1.32 4 -2 4 C-1.34 2.68 -0.68 1.36 0 0 Z " fill="#D92E3C" transform="translate(20,1)"/>
<path d="M0 0 C1.98 0.99 1.98 0.99 4 2 C4 2.66 4 3.32 4 4 C2.68 3.34 1.36 2.68 0 2 C0 1.34 0 0.68 0 0 Z " fill="#D92F3C" transform="translate(2,1)"/>
</svg>
