<?xml version="1.0" encoding="UTF-8"?>
<svg version="1.1" xmlns="http://www.w3.org/2000/svg" width="24" height="24">
<path d="M0 0 C7.26 0 14.52 0 22 0 C22.33 2.97 22.66 5.94 23 9 C23.33 9.33 23.66 9.66 24 10 C24.14115161 12.67058851 24.04247107 15.32432238 24 18 C20.8401049 19.88451576 18.86888521 20.17717906 15.234375 19.7578125 C14.34492188 19.66113281 13.45546875 19.56445312 12.5390625 19.46484375 C11.61867188 19.35269531 10.69828125 19.24054687 9.75 19.125 C8.81414063 19.02058594 7.87828125 18.91617187 6.9140625 18.80859375 C4.60814834 18.54976665 2.30388626 18.27629632 0 18 C0 12.06 0 6.12 0 0 Z " fill="#706E79" transform="translate(0,2)"/>
<path d="M0 0 C7.26 0 14.52 0 22 0 C22.33 2.97 22.66 5.94 23 9 C23.33 9.33 23.66 9.66 24 10 C24.14115161 12.67058851 24.04247107 15.32432238 24 18 C20.8401049 19.88451576 18.86888521 20.17717906 15.234375 19.7578125 C14.34492188 19.66113281 13.45546875 19.56445312 12.5390625 19.46484375 C11.61867188 19.35269531 10.69828125 19.24054687 9.75 19.125 C8.81414063 19.02058594 7.87828125 18.91617187 6.9140625 18.80859375 C4.60814834 18.54976665 2.30388626 18.27629632 0 18 C0 12.06 0 6.12 0 0 Z M2 4 C1.67 8.29 1.34 12.58 1 17 C2.44632812 16.98259766 2.44632812 16.98259766 3.921875 16.96484375 C5.18515625 16.95582031 6.4484375 16.94679688 7.75 16.9375 C9.00296875 16.92589844 10.2559375 16.91429687 11.546875 16.90234375 C14.32563436 16.98092857 16.35901633 17.33975408 19 18 C19.99 17.67 20.98 17.34 22 17 C23.17755913 14.05610218 23.03348696 13.10046087 22 10 C21.34 10 20.68 10 20 10 C20 9.34 20 8.68 20 8 C18.88625 8.2784375 18.88625 8.2784375 17.75 8.5625 C15.05009037 8.99203108 13.55368923 8.85122974 11 8 C11 7.34 11 6.68 11 6 C13.31 6 15.62 6 18 6 C18 5.34 18 4.68 18 4 C12.72 4 7.44 4 2 4 Z " fill="#51555A" transform="translate(0,2)"/>
<path d="M0 0 C0 0.66 0 1.32 0 2 C0.66 2 1.32 2 2 2 C3.125 6.75 3.125 6.75 2 9 C-0.14144331 9.8122716 -1.48714889 10.14252354 -3.71484375 9.5234375 C-6.76048591 8.82580323 -9.62939354 8.90629394 -12.75 8.9375 C-14.50570313 8.95103516 -14.50570313 8.95103516 -16.296875 8.96484375 C-17.18890625 8.97644531 -18.0809375 8.98804688 -19 9 C-19 8.67 -19 8.34 -19 8 C-17.02 8 -15.04 8 -13 8 C-13 7.34 -13 6.68 -13 6 C-11.68 6 -10.36 6 -9 6 C-9.33 4.68 -9.66 3.36 -10 2 C-3.375 0 -3.375 0 0 0 Z " fill="#202326" transform="translate(20,10)"/>
<path d="M0 0 C7.26 0 14.52 0 22 0 C22.33 2.97 22.66 5.94 23 9 C23.33 9.33 23.66 9.66 24 10 C24.14115161 12.67058851 24.04247107 15.32432238 24 18 C20.8401049 19.88451576 18.86888521 20.17717906 15.234375 19.7578125 C14.34492188 19.66113281 13.45546875 19.56445312 12.5390625 19.46484375 C11.61867188 19.35269531 10.69828125 19.24054687 9.75 19.125 C8.81414063 19.02058594 7.87828125 18.91617187 6.9140625 18.80859375 C4.60814834 18.54976665 2.30388626 18.27629632 0 18 C0 12.06 0 6.12 0 0 Z M1 1 C1 6.28 1 11.56 1 17 C4.34125 16.9690625 4.34125 16.9690625 7.75 16.9375 C11.74417728 16.90051688 15.1479802 17.03699505 19 18 C19.99 17.67 20.98 17.34 22 17 C23.54694014 13.53355823 22.73310554 10.37915942 22.0625 6.75 C21.711875 4.8525 21.36125 2.955 21 1 C14.4 1 7.8 1 1 1 Z " fill="#111112" transform="translate(0,2)"/>
<path d="M0 0 C1.125 3.75 1.125 3.75 0 6 C-2.9737344 7.09036928 -3.88407501 7.03864166 -7 6 C-7.75 4.0625 -7.75 4.0625 -8 2 C-6.14210462 -1.71579076 -3.44525918 -1.06921837 0 0 Z " fill="#999C9F" transform="translate(22,13)"/>
<path d="M0 0 C2.97 0 5.94 0 9 0 C9 0.66 9 1.32 9 2 C7.68 2 6.36 2 5 2 C5 2.66 5 3.32 5 4 C3.35 4 1.7 4 0 4 C0 2.68 0 1.36 0 0 Z " fill="#977456" transform="translate(2,14)"/>
<path d="M0 0 C1.32 0 2.64 0 4 0 C3.67 1.98 3.34 3.96 3 6 C1.02 6 -0.96 6 -3 6 C-3 5.34 -3 4.68 -3 4 C-1.68 4 -0.36 4 1 4 C0.67 2.68 0.34 1.36 0 0 Z " fill="#424953" transform="translate(10,12)"/>
</svg>
