<?xml version="1.0" encoding="UTF-8"?>
<svg version="1.1" xmlns="http://www.w3.org/2000/svg" width="24" height="24">
<path d="M0 0 C1.18916016 0.00966797 1.18916016 0.00966797 2.40234375 0.01953125 C3.21058594 0.03628906 4.01882813 0.05304687 4.8515625 0.0703125 C5.68300781 0.07933594 6.51445312 0.08835938 7.37109375 0.09765625 C9.40637587 0.1210503 11.44150814 0.15691525 13.4765625 0.1953125 C13.4765625 5.1453125 13.4765625 10.0953125 13.4765625 15.1953125 C11.4965625 15.1953125 9.5165625 15.1953125 7.4765625 15.1953125 C7.4765625 15.8553125 7.4765625 16.5153125 7.4765625 17.1953125 C8.1365625 17.1953125 8.7965625 17.1953125 9.4765625 17.1953125 C9.4765625 18.1853125 9.4765625 19.1753125 9.4765625 20.1953125 C2.8765625 20.1953125 -3.7234375 20.1953125 -10.5234375 20.1953125 C-10.5234375 14.2553125 -10.5234375 8.3153125 -10.5234375 2.1953125 C-3.7734375 -0.0546875 -3.7734375 -0.0546875 0 0 Z M-1.5234375 15.1953125 C-1.1934375 16.1853125 -0.8634375 17.1753125 -0.5234375 18.1953125 C0.1365625 17.8653125 0.7965625 17.5353125 1.4765625 17.1953125 C1.4765625 16.5353125 1.4765625 15.8753125 1.4765625 15.1953125 C0.4865625 15.1953125 -0.5034375 15.1953125 -1.5234375 15.1953125 Z " fill="#51757D" transform="translate(10.5234375,1.8046875)"/>
<path d="M0 0 C5.28 0 10.56 0 16 0 C16 3.96 16 7.92 16 12 C10.72 12 5.44 12 0 12 C0 8.04 0 4.08 0 0 Z " fill="#1B9DD9" transform="translate(7,4)"/>
<path d="M0 0 C1.98 0 3.96 0 6 0 C6 1.98 6 3.96 6 6 C6.99 6 7.98 6 9 6 C8.67 7.65 8.34 9.3 8 11 C5.36 11 2.72 11 0 11 C0 7.37 0 3.74 0 0 Z " fill="#3F5D5A" transform="translate(0,11)"/>
<path d="M0 0 C2.97 0 5.94 0 9 0 C9 4.62 9 9.24 9 14 C7.02 14 5.04 14 3 14 C3 14.66 3 15.32 3 16 C3.66 16 4.32 16 5 16 C5 16.99 5 17.98 5 19 C1.7 19 -1.6 19 -5 19 C-5 18.01 -5 17.02 -5 16 C-4.34 16 -3.68 16 -3 16 C-3 15.34 -3 14.68 -3 14 C-0.24921116 13.08307039 1.35948913 12.89113917 4.1875 12.9375 C6.0746875 12.9684375 6.0746875 12.9684375 8 13 C8 9.04 8 5.08 8 1 C5.36 1 2.72 1 0 1 C0 0.67 0 0.34 0 0 Z " fill="#3C5656" transform="translate(15,3)"/>
<path d="M0 0 C2.31 0 4.62 0 7 0 C7 3.3 7 6.6 7 10 C4.69 10 2.38 10 0 10 C0 6.7 0 3.4 0 0 Z " fill="#18BFEE" transform="translate(8,5)"/>
<path d="M0 0 C0.66 0 1.32 0 2 0 C2 1.98 2 3.96 2 6 C2.99 6 3.98 6 5 6 C4.67 7.65 4.34 9.3 4 11 C2.68 11 1.36 11 0 11 C0 7.37 0 3.74 0 0 Z " fill="#2D4041" transform="translate(4,11)"/>
<path d="M0 0 C1.98 0 3.96 0 6 0 C6 1.32 6 2.64 6 4 C4.02 4 2.04 4 0 4 C0 2.68 0 1.36 0 0 Z " fill="#3B5556" transform="translate(0,4)"/>
<path d="M0 0 C2.01822917 0.29296875 4.03645833 0.5859375 6.0546875 0.87890625 C8.08140667 1.1684297 8.08140667 1.1684297 10 0 C10 0.99 10 1.98 10 3 C6.7 3 3.4 3 0 3 C0 2.01 0 1.02 0 0 Z " fill="#4F707B" transform="translate(10,19)"/>
<path d="M0 0 C1.98 0 3.96 0 6 0 C6 0.99 6 1.98 6 3 C4.02 3 2.04 3 0 3 C0 2.01 0 1.02 0 0 Z " fill="#4C6E74" transform="translate(0,8)"/>
</svg>
