<?xml version="1.0" encoding="UTF-8"?>
<svg version="1.1" xmlns="http://www.w3.org/2000/svg" width="24" height="24">
<path d="M0 0 C7.26 0 14.52 0 22 0 C21.855625 2.701875 21.71125 5.40375 21.5625 8.1875 C21.49784546 9.45049927 21.49784546 9.45049927 21.43188477 10.73901367 C20.98898545 18.61662871 20.98898545 18.61662871 20 22 C16.10686546 24.47744925 11.48956132 24.57820108 7 24 C5.31611313 23.37810996 3.64455275 22.71949183 2 22 C1.66198848 19.45887768 1.32946621 16.91723254 1 14.375 C0.90460937 13.66214844 0.80921875 12.94929687 0.7109375 12.21484375 C0.62070312 11.51230469 0.53046875 10.80976563 0.4375 10.0859375 C0.35371094 9.4470459 0.26992188 8.8081543 0.18359375 8.14990234 C-0.04761415 5.44243323 0 2.71732333 0 0 Z " fill="#2597F3" transform="translate(1,0)"/>
<path d="M0 0 C4.62 0 9.24 0 14 0 C13.67 4.62 13.34 9.24 13 14 C9.52674819 15.1577506 6.63932552 15.06866652 3 15 C2.67 13.35 2.34 11.7 2 10 C2.66 10 3.32 10 4 10 C4 10.66 4 11.32 4 12 C5.98 12 7.96 12 10 12 C10 10.68 10 9.36 10 8 C7.03 8 4.06 8 1 8 C1 7.34 1 6.68 1 6 C4.3 6 7.6 6 11 6 C11 5.01 11 4.02 11 3 C7.37 3 3.74 3 0 3 C0 2.01 0 1.02 0 0 Z " fill="#DDECF9" transform="translate(5,4)"/>
<path d="M0 0 C2.97 0 5.94 0 9 0 C9 1.32 9 2.64 9 4 C7.02 4 5.04 4 3 4 C3 3.34 3 2.68 3 2 C2.34 2 1.68 2 1 2 C0.67 3.32 0.34 4.64 0 6 C0 4.02 0 2.04 0 0 Z " fill="#42A5F3" transform="translate(6,12)"/>
</svg>
