<?xml version="1.0" encoding="UTF-8"?>
<svg version="1.1" xmlns="http://www.w3.org/2000/svg" width="24" height="24">
<path d="M0 0 C2.58110403 3.67611786 3.22534765 6.48633094 3.0625 10.9375 C2.06100394 14.94348425 0.39313762 17.48334596 -2.9375 19.9375 C-6.68832261 21.02264365 -9.89850729 21.19724818 -13.6875 20.25 C-16.93052481 18.35823553 -19.38639153 16.84241841 -20.4765625 13.07421875 C-21.16060531 8.85065211 -21.15089313 5.73188822 -18.9375 1.9375 C-17.15313455 -0.20373854 -15.7219062 -1.69831141 -13.1875 -2.875 C-7.9178952 -3.31413373 -4.30062722 -3.01958933 0 0 Z M-11.9375 1.9375 C-11.2775 3.5875 -10.6175 5.2375 -9.9375 6.9375 C-7.46949953 5.78576645 -5.88966435 4.88966435 -3.9375 2.9375 C-6.64629335 1.58310332 -8.94683268 1.87248549 -11.9375 1.9375 Z M-3.9375 3.9375 C-5.56581762 5.74711577 -5.56581762 5.74711577 -6.9375 7.9375 C-6.6075 8.9275 -6.2775 9.9175 -5.9375 10.9375 C-3.92241642 11.67073796 -3.92241642 11.67073796 -1.9375 11.9375 C-1.77068891 9.02097826 -1.77068891 9.02097826 -1.9375 5.9375 C-2.5975 5.2775 -3.2575 4.6175 -3.9375 3.9375 Z M-15.9375 5.9375 C-15.9375 7.9175 -15.9375 9.8975 -15.9375 11.9375 C-14.6175 11.2775 -13.2975 10.6175 -11.9375 9.9375 C-11.9375 8.9475 -11.9375 7.9575 -11.9375 6.9375 C-13.2575 6.6075 -14.5775 6.2775 -15.9375 5.9375 Z M-10.5 12.3125 C-12.15835796 13.82557063 -12.15835796 13.82557063 -11.9375 15.9375 C-9.9575 15.9375 -7.9775 15.9375 -5.9375 15.9375 C-6.5975 14.2875 -7.2575 12.6375 -7.9375 10.9375 C-9.15927328 10.82739535 -9.15927328 10.82739535 -10.5 12.3125 Z " fill="#F8C35F" transform="translate(20.9375,3.0625)"/>
<path d="M0 0 C0.309375 1.093125 0.61875 2.18625 0.9375 3.3125 C1.58337897 5.55407994 2.2623117 7.7869351 3 10 C4.87387216 10.80212628 4.87387216 10.80212628 7.0625 11.1875 C7.79597656 11.34605469 8.52945312 11.50460938 9.28515625 11.66796875 C9.85105469 11.77753906 10.41695312 11.88710938 11 12 C11 12.99 11 13.98 11 15 C6.3731507 14.76473648 3.88920506 14.62433547 0.0625 11.9375 C-2.62433547 8.11079494 -2.76473648 5.6268493 -3 1 C-1 0 -1 0 0 0 Z " fill="#FAB349" transform="translate(3,9)"/>
<path d="M0 0 C0.99 0 1.98 0 3 0 C3.33 0.99 3.66 1.98 4 3 C5.98 2.34 7.96 1.68 10 1 C9.34 2.98 8.68 4.96 8 7 C8.99 7.33 9.98 7.66 11 8 C10.67 9.32 10.34 10.64 10 12 C9.01 12 8.02 12 7 12 C6.67 11.01 6.34 10.02 6 9 C3.66796984 6.35703248 2.38326722 5.12775574 -1 4 C-0.67 2.68 -0.34 1.36 0 0 Z " fill="#CDDDE1" transform="translate(7,6)"/>
<path d="M0 0 C0.99 0.99 1.98 1.98 3 3 C2.01 3.99 1.02 4.98 0 6 C-0.99 5.67 -1.98 5.34 -3 5 C-1.125 1.125 -1.125 1.125 0 0 Z " fill="#6F7A80" transform="translate(9,12)"/>
</svg>
