<?xml version="1.0" encoding="UTF-8"?>
<svg version="1.1" xmlns="http://www.w3.org/2000/svg" width="24" height="24">
<path d="M0 0 C4.29 0 8.58 0 13 0 C13.33 1.32 13.66 2.64 14 4 C14.66 4 15.32 4 16 4 C15.67 9.94 15.34 15.88 15 22 C10.44615385 24.27692308 10.44615385 24.27692308 7 24.25 C6.34 24.25515625 5.68 24.2603125 5 24.265625 C3 24 3 24 -1 22 C-1.33 16.06 -1.66 10.12 -2 4 C-1.34 4 -0.68 4 0 4 C0 2.68 0 1.36 0 0 Z M6 2 C7 4 7 4 7 4 Z " fill="#FE5120" transform="translate(5,0)"/>
<path d="M0 0 C3.3 0 6.6 0 10 0 C10 0.66 10 1.32 10 2 C7.36 2 4.72 2 2 2 C2 2.66 2 3.32 2 4 C4.64 4 7.28 4 10 4 C10 6.31 10 8.62 10 11 C5.545 11.495 5.545 11.495 1 12 C0.67 10.68 0.34 9.36 0 8 C0.99 8 1.98 8 3 8 C3 8.66 3 9.32 3 10 C4.32 10 5.64 10 7 10 C7 9.01 7 8.02 7 7 C4.69 7 2.38 7 0 7 C0 4.69 0 2.38 0 0 Z " fill="#F6CEBF" transform="translate(7,8)"/>
<path d="M0 0 C4.29 0 8.58 0 13 0 C13.33 1.32 13.66 2.64 14 4 C9.38 4 4.76 4 0 4 C0 2.68 0 1.36 0 0 Z " fill="#000000" transform="translate(5,0)"/>
<path d="M0 0 C2.31 0 4.62 0 7 0 C6.67 2.31 6.34 4.62 6 7 C3.03 6.67 0.06 6.34 -3 6 C-3 5.34 -3 4.68 -3 4 C-0.36 4 2.28 4 5 4 C5 3.34 5 2.68 5 2 C3.35 2 1.7 2 0 2 C0 1.34 0 0.68 0 0 Z " fill="#FE6F34" transform="translate(12,6)"/>
<path d="M0 0 C1.32 0 2.64 0 4 0 C4 1.98 4 3.96 4 6 C1.29120665 7.35439668 -1.00933268 7.06501451 -4 7 C-4.33 5.68 -4.66 4.36 -5 3 C-4.01 3 -3.02 3 -2 3 C-2 3.66 -2 4.32 -2 5 C-0.01508358 4.73323796 -0.01508358 4.73323796 2 4 C2.33 3.01 2.66 2.02 3 1 C2.01 0.67 1.02 0.34 0 0 Z " fill="#F7E1DC" transform="translate(12,13)"/>
</svg>
