<?xml version="1.0" encoding="UTF-8"?>
<svg version="1.1" xmlns="http://www.w3.org/2000/svg" width="24" height="24">
<path d="M0 0 C7.92 0 15.84 0 24 0 C24 7.92 24 15.84 24 24 C16.08 24 8.16 24 0 24 C0 16.08 0 8.16 0 0 Z " fill="#FBDB00" transform="translate(0,0)"/>
<path d="M0 0 C1.32 0.33 2.64 0.66 4 1 C6.68149993 0.61432869 6.68149993 0.61432869 9 0 C9.33 0.66 9.66 1.32 10 2 C8.68 2 7.36 2 6 2 C6 2.66 6 3.32 6 4 C8.475 4.99 8.475 4.99 11 6 C10.25 10.75 10.25 10.75 8 13 C5.94140625 13.30078125 5.94140625 13.30078125 3.5625 13.3125 C2.38880859 13.33763672 2.38880859 13.33763672 1.19140625 13.36328125 C-1.49050614 12.91868615 -2.37747608 12.1442358 -4 10 C-4 9.34 -4 8.68 -4 8 C-2.68 8.33 -1.36 8.66 0 9 C0 6.03 0 3.06 0 0 Z " fill="#FADB00" transform="translate(11,11)"/>
<path d="M0 0 C1.65 0.33 3.3 0.66 5 1 C3.68 1.33 2.36 1.66 1 2 C1 2.66 1 3.32 1 4 C3.475 4.99 3.475 4.99 6 6 C5.67 7.65 5.34 9.3 5 11 C3.35 11 1.7 11 0 11 C-0.33 10.01 -0.66 9.02 -1 8 C1.475 8.495 1.475 8.495 4 9 C4 8.34 4 7.68 4 7 C1.525 6.01 1.525 6.01 -1 5 C-0.67 3.35 -0.34 1.7 0 0 Z " fill="#181500" transform="translate(16,11)"/>
<path d="M0 0 C0.66 0 1.32 0 2 0 C2 3.3 2 6.6 2 10 C0.35 10.33 -1.3 10.66 -3 11 C-3.33 10.01 -3.66 9.02 -4 8 C-2.68 8.33 -1.36 8.66 0 9 C0 6.03 0 3.06 0 0 Z " fill="#0E0C00" transform="translate(11,11)"/>
<path d="M0 0 C0.33 0 0.66 0 1 0 C1.061875 0.78375 1.12375 1.5675 1.1875 2.375 C1.455625 3.24125 1.72375 4.1075 2 5 C4.47636012 6.37466625 4.47636012 6.37466625 7 7 C7 7.66 7 8.32 7 9 C5.35 8.67 3.7 8.34 2 8 C1.67 8.66 1.34 9.32 1 10 C-0.60725635 6.78548731 -0.05748185 3.56387464 0 0 Z " fill="#E8CB00" transform="translate(13,11)"/>
</svg>
