<?xml version="1.0" encoding="UTF-8"?>
<svg version="1.1" xmlns="http://www.w3.org/2000/svg" width="24" height="24">
<path d="M0 0 C2.1953125 0.07421875 2.1953125 0.07421875 5 1 C6.87159399 3.26762093 8.35846998 5.33067867 9.875 7.8125 C10.29007813 8.44220703 10.70515625 9.07191406 11.1328125 9.72070312 C14.08979667 14.41737965 14.08979667 14.41737965 13.66845703 17.15112305 C13 19 13 19 12 20 C8.69483066 20.25035974 5.37603959 20.18521952 2.0625 20.1875 C1.12986328 20.19974609 0.19722656 20.21199219 -0.76367188 20.22460938 C-1.65505859 20.22654297 -2.54644531 20.22847656 -3.46484375 20.23046875 C-4.285896 20.23457764 -5.10694824 20.23868652 -5.95288086 20.24291992 C-8 20 -8 20 -10 18 C-9.80541106 13.23680109 -7.14599197 9.90804716 -4.4375 6.1875 C-4.01275391 5.59001953 -3.58800781 4.99253906 -3.15039062 4.37695312 C-2.10776741 2.91259467 -1.05489548 1.45554265 0 0 Z " fill="#937C41" transform="translate(10,2)"/>
<path d="M0 0 C0.66 0 1.32 0 2 0 C2.33 2.97 2.66 5.94 3 9 C3.66 9 4.32 9 5 9 C5.33 6.03 5.66 3.06 6 0 C6.66 0 7.32 0 8 0 C9.5078125 2.08203125 9.5078125 2.08203125 11.125 4.8125 C11.66382812 5.70582031 12.20265625 6.59914063 12.7578125 7.51953125 C14 10 14 10 14 13 C11.03 13 8.06 13 5 13 C5 12.01 5 11.02 5 10 C4.34 10 3.68 10 3 10 C3 10.99 3 11.98 3 13 C0.03 13 -2.94 13 -6 13 C-5.53198701 8.00786149 -3.08284263 3.87036007 0 0 Z " fill="#FCC039" transform="translate(8,7)"/>
<path d="M0 0 C0.66 0 1.32 0 2 0 C3.5078125 2.08203125 3.5078125 2.08203125 5.125 4.8125 C5.66382813 5.70582031 6.20265625 6.59914063 6.7578125 7.51953125 C8 10 8 10 8 13 C5.03 13 2.06 13 -1 13 C-1.07654536 8.48382401 -1.10228696 4.40914783 0 0 Z " fill="#FDD057" transform="translate(14,7)"/>
<path d="M0 0 C0.66 0 1.32 0 2 0 C2.33 2.64 2.66 5.28 3 8 C0.9375 6.25 0.9375 6.25 -1 4 C-0.75 1.75 -0.75 1.75 0 0 Z " fill="#FAD059" transform="translate(8,7)"/>
</svg>
