<?xml version="1.0" encoding="UTF-8"?>
<svg version="1.1" xmlns="http://www.w3.org/2000/svg" width="24" height="24">
<path d="M0 0 C0.98484375 -0.00128906 1.9696875 -0.00257812 2.984375 -0.00390625 C4.02078125 -0.00003906 5.0571875 0.00382812 6.125 0.0078125 C7.67960938 0.00201172 7.67960938 0.00201172 9.265625 -0.00390625 C10.25046875 -0.00261719 11.2353125 -0.00132813 12.25 0 C13.16007812 0.00112793 14.07015625 0.00225586 15.0078125 0.00341797 C17.125 0.1328125 17.125 0.1328125 18.125 1.1328125 C18.22380797 2.60933914 18.25579245 4.09048486 18.2578125 5.5703125 C18.25974609 6.91222656 18.25974609 6.91222656 18.26171875 8.28125 C18.25785156 9.22226563 18.25398438 10.16328125 18.25 11.1328125 C18.25580078 12.54433594 18.25580078 12.54433594 18.26171875 13.984375 C18.26042969 14.87898437 18.25914063 15.77359375 18.2578125 16.6953125 C18.25668457 17.52160156 18.25555664 18.34789063 18.25439453 19.19921875 C18.125 21.1328125 18.125 21.1328125 17.125 22.1328125 C15.50242456 22.2319782 13.87560169 22.26361027 12.25 22.265625 C11.26515625 22.26691406 10.2803125 22.26820312 9.265625 22.26953125 C8.22921875 22.26566406 7.1928125 22.26179688 6.125 22.2578125 C4.57039062 22.26361328 4.57039062 22.26361328 2.984375 22.26953125 C1.99953125 22.26824219 1.0146875 22.26695313 0 22.265625 C-0.91007813 22.26449707 -1.82015625 22.26336914 -2.7578125 22.26220703 C-4.875 22.1328125 -4.875 22.1328125 -5.875 21.1328125 C-5.97380797 19.65628586 -6.00579245 18.17514014 -6.0078125 16.6953125 C-6.00910156 15.80070312 -6.01039063 14.90609375 -6.01171875 13.984375 C-6.00591797 12.57285156 -6.00591797 12.57285156 -6 11.1328125 C-6.00386719 10.19179687 -6.00773438 9.25078125 -6.01171875 8.28125 C-6.01042969 7.38664063 -6.00914062 6.49203125 -6.0078125 5.5703125 C-6.00612061 4.33087891 -6.00612061 4.33087891 -6.00439453 3.06640625 C-5.74484266 -0.81218018 -3.323887 0.00411955 0 0 Z M2.125 2.1328125 C3.125 5.1328125 3.125 5.1328125 3.125 5.1328125 Z M6.125 2.1328125 C6.125 3.1228125 6.125 4.1128125 6.125 5.1328125 C9.755 5.1328125 13.385 5.1328125 17.125 5.1328125 C16.795 4.1428125 16.465 3.1528125 16.125 2.1328125 C12.825 2.1328125 9.525 2.1328125 6.125 2.1328125 Z M-4.875 7.1328125 C-4.895625 9.0921875 -4.91625 11.0515625 -4.9375 13.0703125 C-4.94910156 14.17246094 -4.96070313 15.27460938 -4.97265625 16.41015625 C-5.18762571 19.04728884 -5.18762571 19.04728884 -3.875 20.1328125 C-2.39847336 20.23162047 -0.91732764 20.26360495 0.5625 20.265625 C1.90441406 20.26755859 1.90441406 20.26755859 3.2734375 20.26953125 C4.68496094 20.26373047 4.68496094 20.26373047 6.125 20.2578125 C7.06601563 20.26167969 8.00703125 20.26554687 8.9765625 20.26953125 C9.87117187 20.26824219 10.76578125 20.26695313 11.6875 20.265625 C12.92693359 20.26393311 12.92693359 20.26393311 14.19140625 20.26220703 C16.13179039 20.34546057 16.13179039 20.34546057 17.125 19.1328125 C17.19744053 17.11317051 17.20877188 15.09114126 17.1875 13.0703125 C17.1565625 10.13125 17.1565625 10.13125 17.125 7.1328125 C9.865 7.1328125 2.605 7.1328125 -4.875 7.1328125 Z " fill="#000000" transform="translate(5.875,0.8671875)"/>
<path d="M0 0 C0.66 0.33 1.32 0.66 2 1 C1.34 3.64 0.68 6.28 0 9 C-0.66 9 -1.32 9 -2 9 C-2 8.34 -2 7.68 -2 7 C-3.32 6.34 -4.64 5.68 -6 5 C-5.67 4.01 -5.34 3.02 -5 2 C-4.01 1.67 -3.02 1.34 -2 1 C-2 2.32 -2 3.64 -2 5 C-1.34 3.35 -0.68 1.7 0 0 Z " fill="#000000" transform="translate(12,10)"/>
<path d="M0 0 C1.98 0.99 1.98 0.99 4 2 C3.34 3.32 2.68 4.64 2 6 C1.34 6 0.68 6 0 6 C0 4.02 0 2.04 0 0 Z " fill="#000000" transform="translate(14,11)"/>
</svg>
