<?xml version="1.0" encoding="UTF-8"?>
<svg version="1.1" xmlns="http://www.w3.org/2000/svg" width="24" height="24">
<path d="M0 0 C3.114375 -0.020625 6.22875 -0.04125 9.4375 -0.0625 C10.91174438 -0.07615601 10.91174438 -0.07615601 12.41577148 -0.09008789 C13.18477783 -0.09258545 13.95378418 -0.09508301 14.74609375 -0.09765625 C15.93223267 -0.10551147 15.93223267 -0.10551147 17.14233398 -0.11352539 C19 0 19 0 20 1 C20.20370316 4.09327022 20.34610352 7.17876629 20.4296875 10.27734375 C20.63904534 14.7174747 21.56652026 17.33026049 24 21 C24 21.99 24 22.98 24 24 C19.71 24 15.42 24 11 24 C11 23.01 11 22.02 11 21 C7.37 20.67 3.74 20.34 0 20 C0 13.4 0 6.8 0 0 Z " fill="#CFD3E1" transform="translate(0,0)"/>
<path d="M0 0 C2.31 0 4.62 0 7 0 C7.03738281 0.80824219 7.07476563 1.61648437 7.11328125 2.44921875 C7.17902344 3.51785156 7.24476562 4.58648437 7.3125 5.6875 C7.37050781 6.74324219 7.42851562 7.79898437 7.48828125 8.88671875 C8.04094243 12.2490925 9.19257497 14.15560725 11 17 C11 17.99 11 18.98 11 20 C6.71 20 2.42 20 -2 20 C-2 19.01 -2 18.02 -2 17 C-4.31 16.67 -6.62 16.34 -9 16 C-9 15.01 -9 14.02 -9 13 C-5.535 12.505 -5.535 12.505 -2 12 C-1.67 9.36 -1.34 6.72 -1 4 C0.65 4 2.3 4 4 4 C4 3.34 4 2.68 4 2 C2.68 2 1.36 2 0 2 C0 1.34 0 0.68 0 0 Z " fill="#D9D4CD" transform="translate(13,4)"/>
<path d="M0 0 C2.64752004 2.57784846 4.94432065 4.91648098 7 8 C7 8.99 7 9.98 7 11 C2.71 11 -1.58 11 -6 11 C-5.10830166 7.43320663 -4.5329766 6.04396879 -2.4375 3.25 C-1.98246094 2.63640625 -1.52742187 2.0228125 -1.05859375 1.390625 C-0.70925781 0.93171875 -0.35992187 0.4728125 0 0 Z " fill="#F59F19" transform="translate(17,13)"/>
<path d="M0 0 C6.27 0 12.54 0 19 0 C19.33 1.32 19.66 2.64 20 4 C13.4 4 6.8 4 0 4 C0 2.68 0 1.36 0 0 Z " fill="#4C838F" transform="translate(0,0)"/>
<path d="M0 0 C1.32 0 2.64 0 4 0 C4 5.28 4 10.56 4 16 C2.68 16 1.36 16 0 16 C0 10.72 0 5.44 0 0 Z " fill="#BFC5D0" transform="translate(0,4)"/>
<path d="M0 0 C3.96 0 7.92 0 12 0 C12.33 0.99 12.66 1.98 13 3 C8.71 3 4.42 3 0 3 C0 2.01 0 1.02 0 0 Z " fill="#266D7F" transform="translate(7,0)"/>
<path d="M0 0 C0 0.99 0 1.98 0 3 C-2.97 3 -5.94 3 -9 3 C-9 2.01 -9 1.02 -9 0 C-5.67465243 -1.10844919 -3.37817425 -0.84454356 0 0 Z " fill="#D5DAE3" transform="translate(13,17)"/>
<path d="M0 0 C2.64 0 5.28 0 8 0 C8 0.66 8 1.32 8 2 C9.32 2.33 10.64 2.66 12 3 C8.04 3 4.08 3 0 3 C0 2.01 0 1.02 0 0 Z " fill="#B3BAE6" transform="translate(5,4)"/>
<path d="M0 0 C2.31 0 4.62 0 7 0 C6.67 0.99 6.34 1.98 6 3 C6.66 3.33 7.32 3.66 8 4 C5.36 4 2.72 4 0 4 C0 2.68 0 1.36 0 0 Z " fill="#A7BAE6" transform="translate(5,13)"/>
<path d="M0 0 C1.98 0 3.96 0 6 0 C6.33 1.32 6.66 2.64 7 4 C4.69 4 2.38 4 0 4 C0 2.68 0 1.36 0 0 Z " fill="#A5BAE6" transform="translate(5,8)"/>
</svg>
