<?xml version="1.0" encoding="UTF-8"?>
<svg version="1.1" xmlns="http://www.w3.org/2000/svg" width="24" height="24">
<path d="M0 0 C4.62 0 9.24 0 14 0 C14 2.64 14 5.28 14 8 C15.32 7.67 16.64 7.34 18 7 C20.31282587 10.46923881 20.42478586 11.92205575 20 16 C18.6875 17.875 18.6875 17.875 17 19 C16.01 19 15.02 19 14 19 C14 20.65 14 22.3 14 24 C9.38 24 4.76 24 0 24 C0 16.08 0 8.16 0 0 Z " fill="#5696D8" transform="translate(2,0)"/>
<path d="M0 0 C4.62 0 9.24 0 14 0 C14 2.97 14 5.94 14 9 C13.67 9 13.34 9 13 9 C13 6.36 13 3.72 13 1 C12.443125 1.350625 11.88625 1.70125 11.3125 2.0625 C7.55681863 3.58507353 4.7167488 2.23891627 1 1 C1 7.27 1 13.54 1 20 C4.96 20 8.92 20 13 20 C13.33 19.34 13.66 18.68 14 18 C14 19.98 14 21.96 14 24 C9.38 24 4.76 24 0 24 C0 16.08 0 8.16 0 0 Z " fill="#4E5A61" transform="translate(2,0)"/>
<path d="M0 0 C3 1 3 1 4 3 C4.44536082 8.23298969 4.44536082 8.23298969 2.875 10.9375 C0.01396907 12.55875086 -1.90808877 11.83739262 -5 11 C-5.99 10.34 -6.98 9.68 -8 9 C-8 8.34 -8 7.68 -8 7 C-7.34 6.67 -6.68 6.34 -6 6 C-6.66 4.35 -7.32 2.7 -8 1 C-7.05125 1.020625 -6.1025 1.04125 -5.125 1.0625 C-2.09333717 1.22551826 -2.09333717 1.22551826 0 0 Z " fill="#F5B8A0" transform="translate(18,7)"/>
<path d="M0 0 C0.99 0.33 1.98 0.66 3 1 C3.33 1.99 3.66 2.98 4 4 C3.01 4 2.02 4 1 4 C1 4.66 1 5.32 1 6 C3.475 6.99 3.475 6.99 6 8 C6 8.66 6 9.32 6 10 C2.04 10 -1.92 10 -6 10 C-4.02 6.7 -2.04 3.4 0 0 Z " fill="#558DCC" transform="translate(9,10)"/>
<path d="M0 0 C4.62 0 9.24 0 14 0 C14 2.97 14 5.94 14 9 C13.67 9 13.34 9 13 9 C13 6.36 13 3.72 13 1 C12.443125 1.350625 11.88625 1.70125 11.3125 2.0625 C7.55681863 3.58507353 4.7167488 2.23891627 1 1 C1 7.27 1 13.54 1 20 C0.67 20 0.34 20 0 20 C0 13.4 0 6.8 0 0 Z " fill="#4D5C67" transform="translate(2,0)"/>
<path d="M0 0 C0.33 0 0.66 0 1 0 C1 1.98 1 3.96 1 6 C-4.75 6.125 -4.75 6.125 -7 5 C-7 4.34 -7 3.68 -7 3 C-4.69 3 -2.38 3 0 3 C0 2.01 0 1.02 0 0 Z " fill="#6C6450" transform="translate(15,18)"/>
<path d="M0 0 C1.98 0.495 1.98 0.495 4 1 C4 1.66 4 2.32 4 3 C3.01 3 2.02 3 1 3 C1 3.66 1 4.32 1 5 C0.34 5 -0.32 5 -1 5 C-0.67 3.35 -0.34 1.7 0 0 Z " fill="#A8C6E8" transform="translate(9,5)"/>
</svg>
